# xmcd
#
# Track frame offsets:
#	150
#	26388
#	40383
#	57699
#	69705
#	85097
#	100232
#	113784
#	127983
#	143469
#	157542
#	184548
#	200929
#	214297
#	225416
#	238839
#	250648
#	263299
#	278454
#
# Disc length: 3899 seconds
#
# Revision: 1
# Processed by: cddbd v1.5.2PL0 Copyright (c) Steve Scherf et al.
# Submitted via: audiograbber 1.83.01
#
DISCID=fa0f3913
DTITLE=Jorge e Matheus - Ao vivo em Goiânia
DYEAR=1900
DGENRE=
TTITLE0=Tem nada a ver - te cuida coração
TTITLE1=Fogueira
TTITLE2=Amor não é jogo de azar
TTITLE3=Paixão goiana
TTITLE4=Castigo
TTITLE5=Morena proibida
TTITLE6=Querendo te amar
TTITLE7=De tanto te querer
TTITLE8=Pode chorar
TTITLE9=Ta faltando amor
TTITLE10=Pout pourri pagodes
TTITLE11=Me leva
TTITLE12=Traz ela de volta pra mim
TTITLE13=Espinho na cama - Aviões das 9
TTITLE14=Te amo tanto que nem sei
TTITLE15=Meu desespero
TTITLE16=Goiânia me espera
TTITLE17=Do Brasil a Argentina
TTITLE18=Cavaco do pau
EXTD=
EXTT0=
EXTT1=
EXTT2=
EXTT3=
EXTT4=
EXTT5=
EXTT6=
EXTT7=
EXTT8=
EXTT9=
EXTT10=
EXTT11=
EXTT12=
EXTT13=
EXTT14=
EXTT15=
EXTT16=
EXTT17=
EXTT18=
PLAYORDER=
